<mxfile host="Electron" modified="2023-05-19T13:05:46.665Z" agent="Mozilla/5.0 (Windows NT 10.0; Win64; x64) AppleWebKit/537.36 (KHTML, like Gecko) draw.io/21.2.8 Chrome/112.0.5615.165 Electron/24.2.0 Safari/537.36" etag="BDSd3DnS9hiTeve0cTeK" version="21.2.8" type="device">
  <diagram name="Page-1" id="HgFbdBjIhetwYGWqoBpg">
    <mxGraphModel dx="1434" dy="844" grid="1" gridSize="10" guides="1" tooltips="1" connect="1" arrows="1" fold="1" page="1" pageScale="1" pageWidth="850" pageHeight="1100" math="0" shadow="0">
      <root>
        <mxCell id="0" />
        <mxCell id="1" parent="0" />
        <mxCell id="S2c2hNtOZh-3fQHB8HyW-1" value="General UI Layout" style="rounded=0;whiteSpace=wrap;html=1;" vertex="1" parent="1">
          <mxGeometry x="70" y="120" width="120" height="60" as="geometry" />
        </mxCell>
        <mxCell id="S2c2hNtOZh-3fQHB8HyW-2" value="&lt;font style=&quot;font-size: 24px;&quot;&gt;TERAS&amp;nbsp;&lt;br&gt;Componenets to be implemented&lt;/font&gt;" style="text;html=1;strokeColor=none;fillColor=none;align=center;verticalAlign=middle;whiteSpace=wrap;rounded=0;" vertex="1" parent="1">
          <mxGeometry x="280" y="30" width="290" height="60" as="geometry" />
        </mxCell>
        <mxCell id="S2c2hNtOZh-3fQHB8HyW-3" value="UI -Home &lt;br&gt;menu items" style="rounded=0;whiteSpace=wrap;html=1;" vertex="1" parent="1">
          <mxGeometry x="100" y="200" width="120" height="60" as="geometry" />
        </mxCell>
        <mxCell id="S2c2hNtOZh-3fQHB8HyW-4" value="UI - Import Export&lt;br&gt;menu items" style="rounded=0;whiteSpace=wrap;html=1;" vertex="1" parent="1">
          <mxGeometry x="100" y="280" width="120" height="60" as="geometry" />
        </mxCell>
        <mxCell id="S2c2hNtOZh-3fQHB8HyW-5" value="UI - Analysis Tools&lt;br&gt;menu items" style="rounded=0;whiteSpace=wrap;html=1;" vertex="1" parent="1">
          <mxGeometry x="100" y="360" width="120" height="60" as="geometry" />
        </mxCell>
        <mxCell id="S2c2hNtOZh-3fQHB8HyW-6" value="UI - QR MArker Config&lt;br&gt;menu items" style="rounded=0;whiteSpace=wrap;html=1;" vertex="1" parent="1">
          <mxGeometry x="100" y="440" width="120" height="60" as="geometry" />
        </mxCell>
        <mxCell id="S2c2hNtOZh-3fQHB8HyW-7" value="UI - Video frame" style="rounded=0;whiteSpace=wrap;html=1;" vertex="1" parent="1">
          <mxGeometry x="350" y="200" width="120" height="60" as="geometry" />
        </mxCell>
        <mxCell id="S2c2hNtOZh-3fQHB8HyW-8" value="UI - Video playback options" style="rounded=0;whiteSpace=wrap;html=1;" vertex="1" parent="1">
          <mxGeometry x="370" y="270" width="120" height="60" as="geometry" />
        </mxCell>
        <mxCell id="S2c2hNtOZh-3fQHB8HyW-9" value="UI - QR Video Frame" style="rounded=0;whiteSpace=wrap;html=1;" vertex="1" parent="1">
          <mxGeometry x="500" y="200" width="120" height="60" as="geometry" />
        </mxCell>
        <mxCell id="S2c2hNtOZh-3fQHB8HyW-10" value="UI - QR playback options" style="rounded=0;whiteSpace=wrap;html=1;" vertex="1" parent="1">
          <mxGeometry x="520" y="270" width="120" height="60" as="geometry" />
        </mxCell>
        <mxCell id="S2c2hNtOZh-3fQHB8HyW-11" value="Logo design" style="rounded=0;whiteSpace=wrap;html=1;" vertex="1" parent="1">
          <mxGeometry x="210" y="120" width="120" height="60" as="geometry" />
        </mxCell>
        <mxCell id="S2c2hNtOZh-3fQHB8HyW-12" value="General Analytics Box" style="rounded=0;whiteSpace=wrap;html=1;" vertex="1" parent="1">
          <mxGeometry x="660" y="200" width="120" height="60" as="geometry" />
        </mxCell>
        <mxCell id="S2c2hNtOZh-3fQHB8HyW-13" value="QR Space Analytics Box" style="rounded=0;whiteSpace=wrap;html=1;" vertex="1" parent="1">
          <mxGeometry x="660" y="270" width="120" height="60" as="geometry" />
        </mxCell>
        <mxCell id="S2c2hNtOZh-3fQHB8HyW-14" value="AOI Analytics Box&amp;nbsp;" style="rounded=0;whiteSpace=wrap;html=1;" vertex="1" parent="1">
          <mxGeometry x="660" y="340" width="120" height="60" as="geometry" />
        </mxCell>
        <mxCell id="S2c2hNtOZh-3fQHB8HyW-15" value="Windows for Home menu items" style="rounded=0;whiteSpace=wrap;html=1;" vertex="1" parent="1">
          <mxGeometry x="200" y="230" width="120" height="60" as="geometry" />
        </mxCell>
        <mxCell id="S2c2hNtOZh-3fQHB8HyW-16" value="Windows for Import Export menu items" style="rounded=0;whiteSpace=wrap;html=1;" vertex="1" parent="1">
          <mxGeometry x="200" y="310" width="120" height="60" as="geometry" />
        </mxCell>
        <mxCell id="S2c2hNtOZh-3fQHB8HyW-17" value="Windows for Analysis menu items" style="rounded=0;whiteSpace=wrap;html=1;" vertex="1" parent="1">
          <mxGeometry x="200" y="390" width="120" height="60" as="geometry" />
        </mxCell>
        <mxCell id="S2c2hNtOZh-3fQHB8HyW-18" value="Windows for QR Marker menu items" style="rounded=0;whiteSpace=wrap;html=1;" vertex="1" parent="1">
          <mxGeometry x="200" y="470" width="120" height="60" as="geometry" />
        </mxCell>
        <mxCell id="S2c2hNtOZh-3fQHB8HyW-19" value="Funcktionality&amp;nbsp;" style="rounded=0;whiteSpace=wrap;html=1;" vertex="1" parent="1">
          <mxGeometry x="40" y="580" width="120" height="60" as="geometry" />
        </mxCell>
        <mxCell id="S2c2hNtOZh-3fQHB8HyW-21" value="erase all data&amp;nbsp; imported into the program (reset analytics)" style="rounded=0;whiteSpace=wrap;html=1;" vertex="1" parent="1">
          <mxGeometry x="40" y="670" width="120" height="60" as="geometry" />
        </mxCell>
        <mxCell id="S2c2hNtOZh-3fQHB8HyW-22" value="Save the current analytics and configurations (save analytics )" style="rounded=0;whiteSpace=wrap;html=1;" vertex="1" parent="1">
          <mxGeometry x="40" y="750" width="120" height="60" as="geometry" />
        </mxCell>
        <mxCell id="S2c2hNtOZh-3fQHB8HyW-23" value="Load analytics (load analytics)" style="rounded=0;whiteSpace=wrap;html=1;" vertex="1" parent="1">
          <mxGeometry x="40" y="830" width="120" height="60" as="geometry" />
        </mxCell>
        <mxCell id="S2c2hNtOZh-3fQHB8HyW-24" value="Quit the program" style="rounded=0;whiteSpace=wrap;html=1;" vertex="1" parent="1">
          <mxGeometry x="40" y="910" width="120" height="60" as="geometry" />
        </mxCell>
        <mxCell id="S2c2hNtOZh-3fQHB8HyW-25" value="import video file" style="rounded=0;whiteSpace=wrap;html=1;" vertex="1" parent="1">
          <mxGeometry x="200" y="670" width="120" height="60" as="geometry" />
        </mxCell>
        <mxCell id="S2c2hNtOZh-3fQHB8HyW-26" value="import&amp;nbsp; gaze data file&amp;nbsp;" style="rounded=0;whiteSpace=wrap;html=1;" vertex="1" parent="1">
          <mxGeometry x="200" y="750" width="120" height="60" as="geometry" />
        </mxCell>
        <mxCell id="S2c2hNtOZh-3fQHB8HyW-28" value="import trigger file" style="rounded=0;whiteSpace=wrap;html=1;" vertex="1" parent="1">
          <mxGeometry x="200" y="830" width="120" height="60" as="geometry" />
        </mxCell>
        <mxCell id="S2c2hNtOZh-3fQHB8HyW-29" value="Export raw QR space data" style="rounded=0;whiteSpace=wrap;html=1;" vertex="1" parent="1">
          <mxGeometry x="200" y="910" width="120" height="60" as="geometry" />
        </mxCell>
        <mxCell id="S2c2hNtOZh-3fQHB8HyW-30" value="Export Video with eye-metrics" style="rounded=0;whiteSpace=wrap;html=1;" vertex="1" parent="1">
          <mxGeometry x="200" y="990" width="120" height="60" as="geometry" />
        </mxCell>
        <mxCell id="S2c2hNtOZh-3fQHB8HyW-31" value="Export StillFrame Eye-metrics" style="rounded=0;whiteSpace=wrap;html=1;" vertex="1" parent="1">
          <mxGeometry x="200" y="1070" width="120" height="60" as="geometry" />
        </mxCell>
        <mxCell id="S2c2hNtOZh-3fQHB8HyW-32" value="Export Eye-metrics" style="rounded=0;whiteSpace=wrap;html=1;" vertex="1" parent="1">
          <mxGeometry x="200" y="1150" width="120" height="60" as="geometry" />
        </mxCell>
        <mxCell id="S2c2hNtOZh-3fQHB8HyW-33" value="Export AOI Eye-metrics" style="rounded=0;whiteSpace=wrap;html=1;" vertex="1" parent="1">
          <mxGeometry x="200" y="1230" width="120" height="60" as="geometry" />
        </mxCell>
        <mxCell id="S2c2hNtOZh-3fQHB8HyW-34" value="Define Fixation points" style="rounded=0;whiteSpace=wrap;html=1;" vertex="1" parent="1">
          <mxGeometry x="350" y="670" width="120" height="60" as="geometry" />
        </mxCell>
        <mxCell id="S2c2hNtOZh-3fQHB8HyW-35" value="Define Saccades" style="rounded=0;whiteSpace=wrap;html=1;" vertex="1" parent="1">
          <mxGeometry x="350" y="750" width="120" height="60" as="geometry" />
        </mxCell>
        <mxCell id="S2c2hNtOZh-3fQHB8HyW-36" value="Analyze Pupillometry" style="rounded=0;whiteSpace=wrap;html=1;" vertex="1" parent="1">
          <mxGeometry x="350" y="830" width="120" height="60" as="geometry" />
        </mxCell>
        <mxCell id="S2c2hNtOZh-3fQHB8HyW-37" value="Analyze heat map&amp;nbsp;" style="rounded=0;whiteSpace=wrap;html=1;" vertex="1" parent="1">
          <mxGeometry x="350" y="910" width="120" height="60" as="geometry" />
        </mxCell>
        <mxCell id="S2c2hNtOZh-3fQHB8HyW-39" value="Visualize heat map" style="rounded=0;whiteSpace=wrap;html=1;" vertex="1" parent="1">
          <mxGeometry x="400" y="950" width="120" height="60" as="geometry" />
        </mxCell>
        <mxCell id="S2c2hNtOZh-3fQHB8HyW-40" value="AOI analysis" style="rounded=0;whiteSpace=wrap;html=1;" vertex="1" parent="1">
          <mxGeometry x="350" y="1030" width="120" height="60" as="geometry" />
        </mxCell>
        <mxCell id="S2c2hNtOZh-3fQHB8HyW-41" value="Analyze Scanpath" style="rounded=0;whiteSpace=wrap;html=1;" vertex="1" parent="1">
          <mxGeometry x="350" y="1110" width="120" height="60" as="geometry" />
        </mxCell>
        <mxCell id="S2c2hNtOZh-3fQHB8HyW-42" value="Configure QR Marker&amp;nbsp;" style="rounded=0;whiteSpace=wrap;html=1;" vertex="1" parent="1">
          <mxGeometry x="500" y="670" width="120" height="60" as="geometry" />
        </mxCell>
        <mxCell id="S2c2hNtOZh-3fQHB8HyW-43" value="QR Marker Test" style="rounded=0;whiteSpace=wrap;html=1;" vertex="1" parent="1">
          <mxGeometry x="500" y="750" width="120" height="60" as="geometry" />
        </mxCell>
        <mxCell id="S2c2hNtOZh-3fQHB8HyW-44" value="Geneeral Analysis" style="rounded=0;whiteSpace=wrap;html=1;" vertex="1" parent="1">
          <mxGeometry x="350" y="1190" width="120" height="60" as="geometry" />
        </mxCell>
        <mxCell id="S2c2hNtOZh-3fQHB8HyW-45" value="QR Space analysis&amp;nbsp;" style="rounded=0;whiteSpace=wrap;html=1;" vertex="1" parent="1">
          <mxGeometry x="350" y="1270" width="120" height="60" as="geometry" />
        </mxCell>
        <mxCell id="S2c2hNtOZh-3fQHB8HyW-46" value="UI- Fixation Circles" style="rounded=0;whiteSpace=wrap;html=1;" vertex="1" parent="1">
          <mxGeometry x="370" y="350" width="120" height="60" as="geometry" />
        </mxCell>
        <mxCell id="S2c2hNtOZh-3fQHB8HyW-47" value="UI - Saccades lines&amp;nbsp;" style="rounded=0;whiteSpace=wrap;html=1;" vertex="1" parent="1">
          <mxGeometry x="370" y="430" width="120" height="60" as="geometry" />
        </mxCell>
        <mxCell id="S2c2hNtOZh-3fQHB8HyW-48" value="UI - Heatmap gradient" style="rounded=0;whiteSpace=wrap;html=1;" vertex="1" parent="1">
          <mxGeometry x="370" y="510" width="120" height="60" as="geometry" />
        </mxCell>
      </root>
    </mxGraphModel>
  </diagram>
</mxfile>
